<?xml version="1.0" encoding="iso-8859-1"?>
<!-- Generator: Adobe Illustrator 19.0.0, SVG Export Plug-In . SVG Version: 6.00 Build 0)  -->
<svg version="1.1" id="Layer_1" xmlns="http://www.w3.org/2000/svg" xmlns:xlink="http://www.w3.org/1999/xlink" x="0px" y="0px"
	 viewBox="0 0 512 512" style="enable-background:new 0 0 512 512;" xml:space="preserve">
<path style="fill:#ED3929;" d="M256,0C114.615,0,0,114.615,0,256c0,109.973,69.345,203.751,166.694,239.991l337.337-303.618
	C475.741,81.77,375.421,0,256,0z"/>
<path style="fill:#A5150F;" d="M512,256c0-21.965-2.77-43.282-7.974-63.626l-50.505-50.505L256,122.907L74.922,404.203
	l91.776,91.776C194.503,506.33,224.588,512,256,512C397.384,512,512,397.384,512,256z"/>
<polygon style="fill:#ED9433;" points="256,80.667 94.598,140.771 94.598,217.571 267.119,217.571 "/>
<polygon style="fill:#ED663E;" points="256,80.667 256,217.571 417.38,217.571 417.38,139.658 "/>
<polygon style="fill:#EDBF8C;" points="94.598,189.745 94.598,245.397 267.119,256.528 256,189.745 "/>
<polygon style="fill:#EDA960;" points="94.598,245.397 94.598,301.049 267.13,312.18 256,245.397 "/>
<polygon style="fill:#EDBF8C;" points="94.598,301.049 94.598,356.701 267.13,367.832 256,301.049 "/>
<polygon style="fill:#EDA960;" points="94.598,356.701 94.598,412.354 155.815,412.354 200.342,390.093 244.87,412.354 256,412.354 
	267.13,384 256,356.701 "/>
<circle style="fill:#EDD4B8;" cx="94.598" cy="217.567" r="27.826"/>
<circle style="fill:#EDBF8C;" cx="94.598" cy="384.523" r="27.826"/>
<circle style="fill:#EDD4B8;" cx="94.598" cy="328.871" r="27.826"/>
<circle style="fill:#EDBF8C;" cx="94.598" cy="273.219" r="27.826"/>
<polygon style="fill:#EDA960;" points="417.38,189.745 256,189.745 256,256.528 417.38,245.397 "/>
<polygon style="fill:#ED9433;" points="417.38,245.397 256,245.397 256,312.18 417.38,301.049 "/>
<polygon style="fill:#EDA960;" points="417.38,301.049 256,301.049 256,367.832 417.38,356.701 "/>
<rect x="256" y="356.697" style="fill:#ED9433;" width="161.38" height="55.652"/>
<circle style="fill:#EDBF8C;" cx="417.38" cy="217.567" r="27.826"/>
<circle style="fill:#EDA960;" cx="417.38" cy="384.523" r="27.826"/>
<circle style="fill:#EDBF8C;" cx="417.38" cy="328.871" r="27.826"/>
<circle style="fill:#EDA960;" cx="417.38" cy="273.219" r="27.826"/>
<polygon style="fill:#ED3929;" points="155.815,412.354 200.342,412.354 209.248,328.875 200.342,245.397 155.815,245.397 "/>
<rect x="200.348" y="245.393" style="fill:#D62109;" width="44.533" height="166.957"/>
<polygon style="fill:#FFFFFF;" points="178.081,334.441 200.342,334.441 204.794,306.615 200.342,267.658 178.081,267.658 "/>
<rect x="200.348" y="267.654" style="fill:#98F0E7;" width="22.261" height="66.783"/>
<polygon style="fill:#A5150F;" points="356.185,356.701 311.658,356.701 302.752,328.875 311.658,245.397 356.185,245.397 "/>
<rect x="267.13" y="245.393" style="fill:#D62109;" width="44.533" height="111.304"/>
<polygon style="fill:#34D8C7;" points="333.919,334.441 311.658,334.441 307.206,303.617 311.658,267.658 333.919,267.658 "/>
<rect x="289.391" y="267.654" style="fill:#98F0E7;" width="22.261" height="66.783"/>
<polygon style="fill:#430016;" points="453.521,141.869 445.796,162.749 256,92.538 244.87,80.667 256,68.797 "/>
<polygon style="fill:#740B13;" points="256,68.797 256,92.538 66.204,162.749 58.479,141.869 "/>
<g>
</g>
<g>
</g>
<g>
</g>
<g>
</g>
<g>
</g>
<g>
</g>
<g>
</g>
<g>
</g>
<g>
</g>
<g>
</g>
<g>
</g>
<g>
</g>
<g>
</g>
<g>
</g>
<g>
</g>
</svg>
