<?xml version="1.0" encoding="iso-8859-1"?>
<!-- Generator: Adobe Illustrator 19.0.0, SVG Export Plug-In . SVG Version: 6.00 Build 0)  -->
<svg version="1.1" id="Layer_1" xmlns="http://www.w3.org/2000/svg" xmlns:xlink="http://www.w3.org/1999/xlink" x="0px" y="0px"
	 viewBox="0 0 512 512" style="enable-background:new 0 0 512 512;" xml:space="preserve">
<circle style="fill:#366695;" cx="256" cy="256" r="256"/>
<path style="fill:#273B7A;" d="M512,256c0-4.696-0.134-9.359-0.384-13.991L270.648,0.426c-0.255-0.014-0.509-0.034-0.764-0.048
	l-19.056,143.719l-48.157,40.793l-62.333,246.594l74.237,77.164c13.486,2.195,27.319,3.353,41.424,3.353
	C397.384,512,512,397.384,512,256z"/>
<path style="fill:#ADF3F7;" d="M241.778,142.222h28.444V0.4C265.513,0.141,260.773,0,256,0s-9.513,0.141-14.222,0.4V142.222z"/>
<path style="fill:#71E2EF;" d="M253.702,142.222h16.52V0.4C265.513,0.141,260.773,0,256,0c-0.769,0-1.531,0.022-2.298,0.029V142.222
	z"/>
<g>
	<path style="fill:#FFFFFF;" d="M256,207.731c-2.857,0-5.172-2.315-5.172-5.172v-3.448c0-2.857,2.315-5.172,5.172-5.172
		s5.172,2.315,5.172,5.172v3.448C261.172,205.415,258.857,207.731,256,207.731z"/>
	<path style="fill:#FFFFFF;" d="M256,460.35c-2.857,0-5.172-2.315-5.172-5.172v-6.647c0-2.857,2.315-5.172,5.172-5.172
		s5.172,2.315,5.172,5.172v6.647C261.172,458.035,258.857,460.35,256,460.35z M256,428.773c-2.857,0-5.172-2.315-5.172-5.172v-6.647
		c0-2.857,2.315-5.172,5.172-5.172s5.172,2.315,5.172,5.172v6.647C261.172,426.458,258.857,428.773,256,428.773z M256,397.195
		c-2.857,0-5.172-2.315-5.172-5.172v-6.647c0-2.857,2.315-5.172,5.172-5.172s5.172,2.315,5.172,5.172v6.647
		C261.172,394.881,258.857,397.195,256,397.195z M256,365.618c-2.857,0-5.172-2.315-5.172-5.172v-6.647
		c0-2.857,2.315-5.172,5.172-5.172s5.172,2.315,5.172,5.172v6.647C261.172,363.303,258.857,365.618,256,365.618z M256,334.041
		c-2.857,0-5.172-2.315-5.172-5.172v-6.647c0-2.857,2.315-5.172,5.172-5.172s5.172,2.315,5.172,5.172v6.647
		C261.172,331.726,258.857,334.041,256,334.041z M256,302.463c-2.857,0-5.172-2.315-5.172-5.172v-6.647
		c0-2.857,2.315-5.172,5.172-5.172s5.172,2.315,5.172,5.172v6.647C261.172,300.147,258.857,302.463,256,302.463z M256,270.886
		c-2.857,0-5.172-2.315-5.172-5.172v-6.647c0-2.857,2.315-5.172,5.172-5.172s5.172,2.315,5.172,5.172v6.647
		C261.172,268.571,258.857,270.886,256,270.886z M256,239.307c-2.857,0-5.172-2.315-5.172-5.172v-6.647
		c0-2.857,2.315-5.172,5.172-5.172s5.172,2.315,5.172,5.172v6.647C261.172,236.994,258.857,239.307,256,239.307z"/>
	<path style="fill:#FFFFFF;" d="M256,488.727c-2.857,0-5.172-2.315-5.172-5.172v-3.448c0-2.857,2.315-5.172,5.172-5.172
		s5.172,2.315,5.172,5.172v3.448C261.172,486.412,258.857,488.727,256,488.727z"/>
	<path style="fill:#FFFFFF;" d="M227.181,207.71c-0.19,0-0.384-0.01-0.578-0.033c-2.838-0.315-4.884-2.872-4.568-5.711l0.381-3.427
		c0.314-2.838,2.869-4.889,5.711-4.568c2.838,0.315,4.884,2.872,4.568,5.711l-0.381,3.427
		C232.022,205.755,229.783,207.71,227.181,207.71z"/>
	<path style="fill:#FFFFFF;" d="M202.302,431.604c-0.191,0-0.384-0.01-0.579-0.033c-2.838-0.315-4.884-2.874-4.567-5.711l0.75-6.732
		c0.315-2.838,2.875-4.873,5.711-4.567c2.838,0.315,4.884,2.874,4.567,5.711l-0.75,6.732
		C207.141,429.647,204.902,431.604,202.302,431.604z M205.857,399.62c-0.191,0-0.384-0.01-0.579-0.033
		c-2.838-0.315-4.884-2.874-4.567-5.711l0.75-6.732c0.317-2.838,2.872-4.891,5.711-4.567c2.838,0.315,4.884,2.874,4.567,5.711
		l-0.75,6.732C210.696,397.664,208.456,399.62,205.857,399.62z M209.411,367.635c-0.191,0-0.384-0.01-0.579-0.033
		c-2.838-0.315-4.884-2.872-4.567-5.711l0.75-6.734c0.317-2.838,2.869-4.88,5.711-4.567c2.838,0.315,4.884,2.872,4.567,5.711
		l-0.75,6.734C214.249,365.678,212.009,367.635,209.411,367.635z M212.964,335.65c-0.191,0-0.384-0.01-0.579-0.033
		c-2.838-0.315-4.884-2.872-4.567-5.711l0.75-6.734c0.317-2.838,2.865-4.898,5.711-4.567c2.838,0.315,4.884,2.872,4.567,5.711
		l-0.75,6.734C217.803,333.693,215.564,335.65,212.964,335.65z M216.519,303.664c-0.191,0-0.384-0.01-0.579-0.033
		c-2.838-0.315-4.884-2.872-4.567-5.711l0.75-6.734c0.317-2.838,2.862-4.889,5.711-4.567c2.838,0.315,4.884,2.872,4.567,5.711
		l-0.75,6.734C221.356,301.709,219.117,303.664,216.519,303.664z M220.074,271.681c-0.19,0-0.384-0.01-0.578-0.033
		c-2.838-0.315-4.884-2.872-4.568-5.711l0.748-6.734c0.315-2.838,2.865-4.886,5.711-4.568c2.838,0.315,4.884,2.872,4.568,5.711
		l-0.748,6.734C224.915,269.724,222.673,271.681,220.074,271.681z M223.628,239.695c-0.19,0-0.384-0.01-0.578-0.033
		c-2.838-0.315-4.884-2.872-4.568-5.711l0.748-6.734c0.314-2.838,2.869-4.889,5.711-4.568c2.838,0.315,4.884,2.872,4.568,5.711
		l-0.748,6.734C228.468,237.739,226.228,239.695,223.628,239.695z"/>
	<path style="fill:#FFFFFF;" d="M199.118,460.283c-0.19,0-0.384-0.01-0.577-0.033c-2.838-0.315-4.884-2.872-4.568-5.711l0.381-3.427
		c0.314-2.838,2.872-4.891,5.711-4.568c2.838,0.316,4.884,2.872,4.568,5.711l-0.381,3.427
		C203.957,458.326,201.719,460.283,199.118,460.283z"/>
	<path style="fill:#FFFFFF;" d="M284.819,207.71c-2.601,0-4.841-1.957-5.134-4.601l-0.381-3.427
		c-0.315-2.838,1.731-5.396,4.568-5.711c2.843-0.319,5.396,1.731,5.711,4.568l0.381,3.427c0.315,2.838-1.731,5.396-4.568,5.711
		C285.201,207.7,285.008,207.71,284.819,207.71z"/>
	<path style="fill:#FFFFFF;" d="M309.694,431.606c-2.6,0-4.839-1.955-5.134-4.599l-0.75-6.734c-0.317-2.839,1.729-5.398,4.567-5.711
		c2.848-0.309,5.396,1.727,5.711,4.567l0.75,6.734c0.317,2.839-1.729,5.398-4.567,5.711
		C310.079,431.595,309.888,431.606,309.694,431.606z M306.142,399.62c-2.6,0-4.839-1.955-5.134-4.599l-0.75-6.732
		c-0.317-2.838,1.729-5.398,4.567-5.711c2.829-0.324,5.396,1.727,5.711,4.567l0.75,6.732c0.317,2.838-1.729,5.398-4.567,5.711
		C306.526,399.61,306.333,399.62,306.142,399.62z M302.587,367.635c-2.601,0-4.841-1.957-5.134-4.601l-0.748-6.734
		c-0.315-2.838,1.731-5.396,4.568-5.711c2.832-0.329,5.396,1.731,5.711,4.568l0.748,6.734c0.315,2.838-1.731,5.396-4.568,5.711
		C302.971,367.625,302.778,367.635,302.587,367.635z M299.034,335.65c-2.601,0-4.841-1.957-5.134-4.601l-0.748-6.734
		c-0.315-2.838,1.731-5.396,4.568-5.711c2.829-0.333,5.396,1.731,5.711,4.568l0.748,6.734c0.315,2.838-1.731,5.396-4.568,5.711
		C299.417,335.639,299.223,335.65,299.034,335.65z M295.479,303.664c-2.601,0-4.841-1.957-5.134-4.601l-0.748-6.734
		c-0.315-2.838,1.731-5.396,4.568-5.711c2.85-0.312,5.396,1.731,5.711,4.568l0.748,6.734c0.315,2.838-1.731,5.396-4.568,5.711
		C295.864,303.656,295.671,303.664,295.479,303.664z M291.926,271.681c-2.601,0-4.841-1.957-5.134-4.601l-0.748-6.734
		c-0.315-2.838,1.731-5.396,4.568-5.711c2.846-0.315,5.396,1.731,5.711,4.568l0.748,6.734c0.315,2.838-1.731,5.396-4.568,5.711
		C292.309,271.67,292.116,271.681,291.926,271.681z M288.371,239.695c-2.601,0-4.841-1.957-5.134-4.601l-0.748-6.734
		c-0.315-2.838,1.731-5.396,4.568-5.711c2.843-0.319,5.396,1.731,5.711,4.568l0.748,6.734c0.315,2.838-1.731,5.396-4.568,5.711
		C288.756,239.685,288.563,239.695,288.371,239.695z"/>
	<path style="fill:#FFFFFF;" d="M312.882,460.283c-2.601,0-4.841-1.957-5.134-4.601l-0.381-3.427
		c-0.315-2.838,1.731-5.396,4.568-5.711c2.839-0.321,5.396,1.731,5.711,4.568l0.381,3.427c0.315,2.838-1.731,5.396-4.568,5.711
		C313.266,460.272,313.072,460.283,312.882,460.283z"/>
	<path style="fill:#FFFFFF;" d="M198.278,207.629c-0.414,0-0.836-0.05-1.257-0.157c-2.77-0.691-4.456-3.501-3.763-6.272l0.836-3.344
		c0.691-2.77,3.487-4.461,6.272-3.763c2.77,0.691,4.456,3.501,3.763,6.272l-0.836,3.344
		C202.704,206.06,200.595,207.629,198.278,207.629z"/>
	<path style="fill:#FFFFFF;" d="M149.483,402.813c-0.414,0-0.836-0.05-1.257-0.157c-2.77-0.691-4.456-3.5-3.763-6.272l1.712-6.849
		c0.691-2.769,3.491-4.468,6.272-3.763c2.77,0.691,4.456,3.5,3.763,6.272l-1.712,6.849
		C153.909,401.244,151.802,402.813,149.483,402.813z M157.617,370.283c-0.414,0-0.834-0.05-1.257-0.157
		c-2.77-0.691-4.458-3.498-3.765-6.27l1.71-6.849c0.69-2.77,3.489-4.472,6.27-3.765c2.77,0.691,4.458,3.498,3.765,6.27l-1.71,6.849
		C162.044,368.712,159.934,370.283,157.617,370.283z M165.747,337.753c-0.414,0-0.836-0.05-1.257-0.157
		c-2.77-0.691-4.456-3.5-3.763-6.272l1.712-6.849c0.691-2.77,3.487-4.461,6.272-3.763c2.77,0.691,4.456,3.5,3.763,6.272
		l-1.712,6.849C170.174,336.184,168.065,337.753,165.747,337.753z M173.88,305.223c-0.414,0-0.836-0.05-1.257-0.157
		c-2.77-0.691-4.456-3.5-3.763-6.272l1.712-6.851c0.691-2.77,3.496-4.461,6.272-3.763c2.77,0.691,4.456,3.5,3.763,6.272
		l-1.712,6.851C178.307,303.654,176.199,305.223,173.88,305.223z M182.012,272.691c-0.414,0-0.836-0.05-1.257-0.157
		c-2.77-0.691-4.456-3.5-3.763-6.272l1.712-6.849c0.691-2.77,3.494-4.465,6.272-3.763c2.77,0.691,4.456,3.5,3.763,6.272
		l-1.712,6.849C186.437,271.12,184.33,272.691,182.012,272.691z M190.145,240.161c-0.414,0-0.836-0.05-1.257-0.157
		c-2.77-0.691-4.456-3.5-3.763-6.272l1.712-6.849c0.69-2.77,3.491-4.467,6.272-3.763c2.77,0.691,4.456,3.5,3.763,6.272l-1.712,6.849
		C194.57,238.59,192.462,240.161,190.145,240.161z"/>
	<path style="fill:#FFFFFF;" d="M142.226,431.84c-0.414,0-0.836-0.05-1.257-0.157c-2.77-0.691-4.456-3.501-3.763-6.272l0.836-3.344
		c0.693-2.77,3.493-4.467,6.272-3.763c2.77,0.691,4.456,3.501,3.763,6.272l-0.836,3.344
		C146.651,430.271,144.544,431.84,142.226,431.84z"/>
	<path style="fill:#FFFFFF;" d="M313.722,207.629c-2.319,0-4.425-1.569-5.013-3.918l-0.836-3.344
		c-0.693-2.769,0.991-5.579,3.763-6.272c2.772-0.696,5.577,0.991,6.272,3.763l0.836,3.344c0.693,2.769-0.991,5.579-3.763,6.272
		C314.559,207.579,314.137,207.629,313.722,207.629z"/>
	<path style="fill:#FFFFFF;" d="M362.517,402.813c-2.319,0-4.425-1.569-5.013-3.918l-1.712-6.849
		c-0.693-2.77,0.991-5.579,3.763-6.272c2.779-0.703,5.579,0.993,6.272,3.763l1.712,6.849c0.693,2.77-0.991,5.579-3.763,6.272
		C363.353,402.763,362.93,402.813,362.517,402.813z M354.383,370.283c-2.319,0-4.425-1.569-5.013-3.918l-1.712-6.849
		c-0.693-2.77,0.991-5.579,3.763-6.272c2.77-0.705,5.579,0.993,6.272,3.763l1.712,6.849c0.693,2.77-0.991,5.579-3.763,6.272
		C355.221,370.233,354.797,370.283,354.383,370.283z M346.25,337.753c-2.319,0-4.425-1.569-5.013-3.918l-1.712-6.849
		c-0.693-2.77,0.991-5.579,3.763-6.272c2.774-0.696,5.577,0.991,6.272,3.763l1.712,6.849c0.693,2.77-0.991,5.579-3.763,6.272
		C347.088,337.703,346.665,337.753,346.25,337.753z M338.12,305.221c-2.319,0-4.425-1.569-5.013-3.918l-1.712-6.849
		c-0.693-2.77,0.991-5.579,3.763-6.272c2.774-0.696,5.577,0.993,6.272,3.763l1.712,6.849c0.693,2.77-0.991,5.579-3.763,6.272
		C338.956,305.169,338.534,305.221,338.12,305.221z M329.987,272.691c-2.319,0-4.425-1.569-5.013-3.918l-1.712-6.849
		c-0.693-2.77,0.991-5.579,3.763-6.272c2.777-0.7,5.577,0.991,6.272,3.763l1.712,6.849c0.693,2.77-0.991,5.579-3.763,6.272
		C330.823,272.639,330.4,272.691,329.987,272.691z M321.853,240.161c-2.319,0-4.425-1.569-5.013-3.918l-1.712-6.849
		c-0.693-2.77,0.991-5.579,3.763-6.272c2.781-0.702,5.579,0.991,6.272,3.763l1.712,6.849c0.693,2.77-0.991,5.579-3.763,6.272
		C322.689,240.109,322.267,240.161,321.853,240.161z"/>
	<path style="fill:#FFFFFF;" d="M369.774,431.84c-2.319,0-4.425-1.569-5.013-3.918l-0.836-3.344
		c-0.693-2.769,0.991-5.579,3.763-6.272c2.777-0.702,5.579,0.991,6.272,3.763l0.836,3.344c0.693,2.769-0.991,5.579-3.763,6.272
		C370.61,431.79,370.188,431.84,369.774,431.84z"/>
</g>
<rect x="191.354" y="140.274" style="fill:#71E2EF;" width="129.293" height="32.323"/>
<g>
	<rect x="253.707" y="140.274" style="fill:#38C6D9;" width="66.944" height="32.323"/>
	<rect x="142.222" y="170.667" style="fill:#38C6D9;" width="227.556" height="28.444"/>
</g>
<rect x="253.707" y="170.667" style="fill:#28B2BC;" width="116.071" height="28.444"/>
<g>
</g>
<g>
</g>
<g>
</g>
<g>
</g>
<g>
</g>
<g>
</g>
<g>
</g>
<g>
</g>
<g>
</g>
<g>
</g>
<g>
</g>
<g>
</g>
<g>
</g>
<g>
</g>
<g>
</g>
</svg>
